<svg xmlns="http://www.w3.org/2000/svg" viewBox="0 0 349.78781 371.837808" role="img" aria-label="QuartierConnect">
  <g transform="translate(-0.106095,371.920659) scale(0.1,-0.1)" fill="currentColor" stroke="none">
    <path d="M1715 3708 c-50 -29 -575 -429 -589 -450 -14 -20 -16 -71 -16 -405 l0 -382 -122 -72 c-68 -39 -133 -78 -146 -86 -23 -14 -23 -14 38 -63 72 -58 40 -65 263 64 l148 86 459 0 459 0 167 -94 166 -94 58 41 c31 23 57 47 57 52 0 6 -54 42 -119 81 l-120 72 1 378 c0 279 -3 386 -12 406 -7 17 -118 106 -297 241 -157 118 -296 219 -307 226 -27 14 -62 14 -88 -1z m87 -299 c44 -24 327 -239 342 -260 14 -20 16 -57 16 -240 l0 -217 -26 -31 -26 -31 -118 0 -118 0 -4 96 c-4 94 -5 97 -36 125 -24 22 -42 29 -72 29 -92 0 -120 -38 -120 -165 l0 -85 -111 0 c-109 0 -111 0 -140 29 l-29 29 0 217 c0 129 4 224 10 235 6 11 54 53 108 93 249 189 274 203 324 176z" />
    <path d="M646 3061 l-268 -139 -45 32 c-40 28 -52 31 -117 31 -62 0 -78 -4 -114 -28 -58 -38 -92 -93 -99 -161 -5 -47 -2 -64 22 -111 18 -37 40 -65 66 -82 l39 -26 0 -278 c0 -154 2 -279 6 -279 3 0 41 23 85 51 l79 51 0 224 0 224 54 52 c36 36 58 66 65 93 11 40 12 40 261 170 l250 130 0 93 c0 50 -3 92 -7 92 -5 -1 -129 -63 -277 -139z" />
    <path d="M2570 3108 l0 -93 250 -130 c250 -130 250 -130 261 -170 7 -27 29 -57 65 -93 l54 -52 0 -224 0 -224 79 -51 c44 -28 82 -51 85 -51 4 0 6 125 6 279 l0 278 39 26 c26 17 48 45 66 82 24 47 27 64 22 111 -15 147 -160 232 -295 174 -28 -12 -57 -28 -63 -36 -10 -12 -58 10 -284 126 -150 77 -276 140 -279 140 -3 0 -6 -42 -6 -92z" />
    <path d="M361 1950 c-161 -120 -299 -227 -307 -237 -11 -14 -13 -94 -14 -405 l0 -388 29 -32 29 -33 576 -3 c492 -2 580 0 611 12 63 27 65 39 64 443 -1 197 -4 369 -8 383 -4 18 -93 90 -309 253 -271 204 -306 227 -340 227 -35 0 -69 -23 -331 -220z m530 -200 c90 -66 172 -130 182 -141 15 -19 17 -46 17 -245 0 -221 0 -223 -24 -251 -24 -27 -27 -28 -145 -31 l-121 -4 0 81 c0 105 -17 146 -66 167 -46 19 -94 12 -131 -21 -27 -22 -28 -28 -31 -124 l-4 -101 -98 0 c-177 0 -180 5 -180 287 1 146 4 215 13 230 7 13 89 79 182 148 144 107 175 125 206 125 31 0 61 -18 200 -120z" />
    <path d="M2483 1947 c-190 -142 -303 -233 -311 -251 -19 -43 -17 -734 3 -782 27 -66 18 -65 661 -62 l576 3 29 33 29 32 0 388 c0 295 -3 392 -12 405 -7 9 -145 115 -307 237 -263 197 -298 220 -332 220 -34 0 -70 -24 -336 -223z m542 -203 c94 -69 175 -135 182 -147 9 -15 12 -86 13 -230 0 -285 -1 -287 -190 -287 l-110 0 0 95 c0 91 -1 96 -29 127 -26 29 -35 33 -81 33 -46 0 -55 -4 -81 -33 -28 -31 -29 -36 -29 -128 l0 -96 -116 4 c-113 3 -116 4 -140 31 -24 28 -24 30 -24 252 0 218 1 225 23 249 12 13 93 77 180 140 134 98 165 116 195 116 31 0 63 -19 207 -126z" />
    <path d="M1490 1246 l0 -95 85 -61 85 -61 0 -312 0 -312 -28 -17 c-15 -10 -34 -22 -42 -29 -12 -8 -83 27 -346 176 l-331 186 -133 -3 -133 -3 443 -261 c439 -258 443 -260 455 -300 17 -60 52 -101 109 -129 118 -59 247 -6 295 121 l19 49 444 260 445 260 -137 3 -136 3 -300 -169 c-406 -229 -359 -208 -395 -177 -17 14 -35 25 -40 25 -5 0 -9 130 -9 318 l0 317 85 55 85 55 0 98 0 98 -22 -12 c-13 -7 -69 -38 -125 -70 -56 -33 -107 -59 -114 -59 -7 0 -66 32 -131 70 -65 39 -121 70 -123 70 -3 0 -5 -42 -5 -94z" />
  </g>
</svg>
