<svg width="350" height="372" viewBox="0 0 350 372" fill="none" xmlns="http://www.w3.org/2000/svg">
<path fill-rule="evenodd" clip-rule="evenodd" d="M42.6186 96.8563L93.2469 70.2017L92.9002 51.5237L37.2023 79.8729C33.2906 75.5836 27.6538 72.8918 21.3877 72.8918C9.57559 72.8918 0 82.4572 0 94.2567C0 102.92 5.16191 110.379 12.581 113.732V170.919L30.1944 159.608V113.732C36.8598 110.72 41.7034 104.393 42.6186 96.8563Z" fill="#1447e6"/>
<path d="M256.753 70.2051L307.381 96.8597C308.297 104.396 313.14 110.723 319.806 113.735V159.611L337.419 170.922V113.735C344.838 110.382 350 102.923 350 94.26C350 82.4605 340.424 72.8952 328.612 72.8952C322.346 72.8952 316.709 75.587 312.798 79.8762L257.1 51.527L256.753 70.2051Z" fill="#1447e6"/>
<path d="M183.682 331.16C186.828 332.582 189.568 334.742 191.681 337.419L258.72 299.736H286.846L196.155 352.799C195.069 363.582 185.957 372 174.876 372C163.769 372 154.64 363.543 153.589 352.724L63.534 299.736H91.0317L158.07 337.419C160.183 334.742 162.923 332.582 166.069 331.16V268.946L149.085 257.007V237.527L174.876 252.608L201.296 237.527V257.007L183.682 268.946V331.16Z" fill="#1447e6"/>
<path fill-rule="evenodd" clip-rule="evenodd" d="M287.818 156.59L343.207 198.065C345.743 199.964 347.235 202.944 347.235 206.11V276.486C347.235 282.039 342.729 286.541 337.17 286.541H226.458C220.899 286.541 216.393 282.039 216.393 276.486V206.106C216.393 202.943 217.884 199.964 220.417 198.065L275.74 156.593C279.318 153.911 284.239 153.91 287.818 156.59ZM287.782 186.657L317.995 208.99C320.56 210.886 322.073 213.885 322.073 217.072V253.865C322.073 259.418 317.567 263.919 312.008 263.919H292.166V248.445C292.166 242.892 287.66 238.391 282.102 238.391H279.801C274.242 238.391 269.736 242.892 269.736 248.445V263.919H251.62C246.061 263.919 241.555 259.418 241.555 253.865V217.069C241.555 213.883 243.066 210.886 245.629 208.99L275.804 186.661C279.362 184.028 284.223 184.027 287.782 186.657Z" fill="#1447e6"/>
<path fill-rule="evenodd" clip-rule="evenodd" d="M216.393 99.2838C216.393 102.948 214.43 106.155 211.498 107.912C209.987 108.817 208.218 109.338 206.328 109.338H186.486V93.864C186.486 93.5365 186.47 93.2127 186.44 92.8933C185.951 87.796 181.652 83.81 176.421 83.81H174.121C168.586 83.81 164.094 88.2736 164.056 93.7941L164.056 93.864V109.338H145.939C143.885 109.338 141.975 108.723 140.383 107.668C137.666 105.867 135.875 102.785 135.875 99.2838V62.4876C135.875 59.302 137.386 56.3049 139.948 54.4087L170.124 32.0794C173.681 29.447 178.543 29.4458 182.102 32.0763L212.315 54.4089C214.88 56.3048 216.393 59.3034 216.393 62.4909V99.2838ZM240.883 125.524C241.317 124.401 241.555 123.181 241.555 121.905V51.5287C241.555 48.3632 240.062 45.3825 237.527 43.4838L182.138 2.00922C178.559 -0.670917 173.638 -0.669623 170.06 2.0124L114.736 43.4837C112.203 45.3826 110.713 48.3617 110.713 51.5254V121.905C110.713 122.914 110.861 123.888 111.138 124.806L81.7764 142.014L94.3574 152.068L129.176 131.959H221.111L254.136 150.811L267.346 141.385L240.883 125.524Z" fill="#1447e6"/>
<path fill-rule="evenodd" clip-rule="evenodd" d="M75.1996 156.59L130.588 198.065C133.124 199.964 134.617 202.944 134.617 206.11V276.486C134.617 282.039 130.11 286.541 124.552 286.541H13.8391C8.28045 286.541 3.7743 282.039 3.7743 276.486V206.106C3.7743 202.943 5.26496 199.964 7.79809 198.065L63.1219 156.593C66.6998 153.911 71.6203 153.91 75.1996 156.59ZM75.1634 186.657L105.377 208.99C107.942 210.886 109.455 213.885 109.455 217.072V253.865C109.455 259.418 104.948 263.919 99.3898 263.919H79.5478V248.445C79.5478 242.892 75.0416 238.391 69.483 238.391H67.1825C61.6238 238.391 57.1177 242.892 57.1177 248.445V263.919H39.001C33.4424 263.919 28.9363 259.418 28.9363 253.865V217.069C28.9363 213.883 30.4476 210.886 33.0101 208.99L63.1856 186.661C66.743 184.028 71.6046 184.027 75.1634 186.657Z" fill="#1447e6"/>
</svg>